<mxfile host="Electron" modified="2024-02-21T00:32:42.413Z" agent="Mozilla/5.0 (Windows NT 10.0; Win64; x64) AppleWebKit/537.36 (KHTML, like Gecko) draw.io/23.1.5 Chrome/120.0.6099.109 Electron/28.1.0 Safari/537.36" etag="tRf3gZxk4zVofAQSDueF" version="23.1.5" type="device">
  <diagram id="9cuXAUbMIXl8HNfYNScZ" name="pet_reg-1">
    <mxGraphModel dx="1418" dy="828" grid="1" gridSize="10" guides="1" tooltips="1" connect="1" arrows="1" fold="1" page="1" pageScale="1" pageWidth="1169" pageHeight="1654" math="0" shadow="0">
      <root>
        <mxCell id="0" />
        <mxCell id="1" parent="0" />
        <mxCell id="oIyk9wpfDFU-G1tPx84q-1" value="&lt;p style=&quot;margin:0px;margin-top:4px;text-align:center;&quot;&gt;class&amp;nbsp;&lt;b style=&quot;border-color: var(--border-color);&quot;&gt;&lt;font face=&quot;Helvetica&quot; style=&quot;font-size: 12px;&quot;&gt;Animal&lt;/font&gt;&lt;/b&gt;&lt;br&gt;&lt;/p&gt;&lt;hr size=&quot;1&quot;&gt;&lt;p style=&quot;margin:0px;margin-left:4px;&quot;&gt;type: string&lt;br&gt;name: String&lt;br&gt;&lt;/p&gt;&lt;p style=&quot;margin:0px;margin-left:4px;&quot;&gt;commands: Map&amp;lt;String, String&amp;gt;&lt;br&gt;&lt;/p&gt;&lt;hr size=&quot;1&quot;&gt;&lt;p style=&quot;margin:0px;margin-left:4px;&quot;&gt;Animal(String name, String type)&lt;/p&gt;&lt;p style=&quot;margin:0px;margin-left:4px;&quot;&gt;void addCommand(String command, String action)&lt;/p&gt;&lt;p style=&quot;margin:0px;margin-left:4px;&quot;&gt;void listCommands()&lt;/p&gt;&lt;p style=&quot;margin:0px;margin-left:4px;&quot;&gt;void determineType()&lt;/p&gt;" style="verticalAlign=top;align=left;overflow=fill;fontSize=12;fontFamily=Helvetica;html=1;rounded=0;shadow=0;comic=0;labelBackgroundColor=none;strokeWidth=1" vertex="1" parent="1">
          <mxGeometry x="445" y="40" width="280" height="160" as="geometry" />
        </mxCell>
        <mxCell id="jzkqw5IapA6fETzB1Am8-3" style="edgeStyle=orthogonalEdgeStyle;rounded=0;orthogonalLoop=1;jettySize=auto;html=1;exitX=0.5;exitY=0;exitDx=0;exitDy=0;entryX=0;entryY=0.5;entryDx=0;entryDy=0;dashed=1;dashPattern=8 8;startArrow=classic;startFill=1;endArrow=none;endFill=0;" edge="1" parent="1" source="jzkqw5IapA6fETzB1Am8-1" target="oIyk9wpfDFU-G1tPx84q-1">
          <mxGeometry relative="1" as="geometry" />
        </mxCell>
        <mxCell id="jzkqw5IapA6fETzB1Am8-4" value="extends" style="edgeLabel;html=1;align=center;verticalAlign=middle;resizable=0;points=[];" vertex="1" connectable="0" parent="jzkqw5IapA6fETzB1Am8-3">
          <mxGeometry x="-0.2435" y="-3" relative="1" as="geometry">
            <mxPoint x="68" y="-13" as="offset" />
          </mxGeometry>
        </mxCell>
        <mxCell id="jzkqw5IapA6fETzB1Am8-13" style="edgeStyle=orthogonalEdgeStyle;rounded=0;orthogonalLoop=1;jettySize=auto;html=1;exitX=0;exitY=0.5;exitDx=0;exitDy=0;entryX=0.5;entryY=0;entryDx=0;entryDy=0;dashed=1;dashPattern=8 8;" edge="1" parent="1" source="jzkqw5IapA6fETzB1Am8-1" target="jzkqw5IapA6fETzB1Am8-7">
          <mxGeometry relative="1" as="geometry" />
        </mxCell>
        <mxCell id="jzkqw5IapA6fETzB1Am8-14" value="extends" style="edgeLabel;html=1;align=center;verticalAlign=middle;resizable=0;points=[];" vertex="1" connectable="0" parent="jzkqw5IapA6fETzB1Am8-13">
          <mxGeometry x="-0.3684" relative="1" as="geometry">
            <mxPoint x="20" y="-15" as="offset" />
          </mxGeometry>
        </mxCell>
        <mxCell id="jzkqw5IapA6fETzB1Am8-15" style="edgeStyle=orthogonalEdgeStyle;rounded=0;orthogonalLoop=1;jettySize=auto;html=1;exitX=0.5;exitY=1;exitDx=0;exitDy=0;entryX=0.5;entryY=0;entryDx=0;entryDy=0;dashed=1;dashPattern=8 8;" edge="1" parent="1" source="jzkqw5IapA6fETzB1Am8-1" target="jzkqw5IapA6fETzB1Am8-8">
          <mxGeometry relative="1" as="geometry" />
        </mxCell>
        <mxCell id="jzkqw5IapA6fETzB1Am8-16" value="extends" style="edgeLabel;html=1;align=center;verticalAlign=middle;resizable=0;points=[];" vertex="1" connectable="0" parent="jzkqw5IapA6fETzB1Am8-15">
          <mxGeometry x="-0.2857" y="1" relative="1" as="geometry">
            <mxPoint x="-26" y="5" as="offset" />
          </mxGeometry>
        </mxCell>
        <mxCell id="jzkqw5IapA6fETzB1Am8-17" style="edgeStyle=orthogonalEdgeStyle;rounded=0;orthogonalLoop=1;jettySize=auto;html=1;exitX=1;exitY=0.5;exitDx=0;exitDy=0;entryX=0.5;entryY=0;entryDx=0;entryDy=0;dashed=1;dashPattern=8 8;" edge="1" parent="1" source="jzkqw5IapA6fETzB1Am8-1" target="jzkqw5IapA6fETzB1Am8-9">
          <mxGeometry relative="1" as="geometry" />
        </mxCell>
        <mxCell id="jzkqw5IapA6fETzB1Am8-18" value="extends" style="edgeLabel;html=1;align=center;verticalAlign=middle;resizable=0;points=[];" vertex="1" connectable="0" parent="jzkqw5IapA6fETzB1Am8-17">
          <mxGeometry x="0.2211" relative="1" as="geometry">
            <mxPoint x="-40" y="-46" as="offset" />
          </mxGeometry>
        </mxCell>
        <mxCell id="jzkqw5IapA6fETzB1Am8-1" value="&lt;p style=&quot;margin:0px;margin-top:4px;text-align:center;&quot;&gt;class &lt;b&gt;PetAnimal&lt;/b&gt;&lt;/p&gt;&lt;hr size=&quot;1&quot;&gt;&lt;p style=&quot;margin:0px;margin-left:4px;&quot;&gt;PetAnimal(String name, String type)&lt;/p&gt;" style="verticalAlign=top;align=left;overflow=fill;fontSize=12;fontFamily=Helvetica;html=1;rounded=0;shadow=0;comic=0;labelBackgroundColor=none;strokeWidth=1" vertex="1" parent="1">
          <mxGeometry x="190" y="200" width="210" height="70" as="geometry" />
        </mxCell>
        <mxCell id="jzkqw5IapA6fETzB1Am8-5" style="edgeStyle=orthogonalEdgeStyle;rounded=0;orthogonalLoop=1;jettySize=auto;html=1;exitX=0.5;exitY=0;exitDx=0;exitDy=0;entryX=1;entryY=0.5;entryDx=0;entryDy=0;dashed=1;dashPattern=8 8;startArrow=classic;startFill=1;endArrow=none;endFill=0;" edge="1" parent="1" source="jzkqw5IapA6fETzB1Am8-2" target="oIyk9wpfDFU-G1tPx84q-1">
          <mxGeometry relative="1" as="geometry" />
        </mxCell>
        <mxCell id="jzkqw5IapA6fETzB1Am8-6" value="extends" style="edgeLabel;html=1;align=center;verticalAlign=middle;resizable=0;points=[];" vertex="1" connectable="0" parent="jzkqw5IapA6fETzB1Am8-5">
          <mxGeometry x="-0.0609" y="1" relative="1" as="geometry">
            <mxPoint x="-37" y="-11" as="offset" />
          </mxGeometry>
        </mxCell>
        <mxCell id="jzkqw5IapA6fETzB1Am8-19" style="edgeStyle=orthogonalEdgeStyle;rounded=0;orthogonalLoop=1;jettySize=auto;html=1;exitX=0;exitY=0.5;exitDx=0;exitDy=0;entryX=0.5;entryY=0;entryDx=0;entryDy=0;dashed=1;dashPattern=8 8;" edge="1" parent="1" source="jzkqw5IapA6fETzB1Am8-2" target="jzkqw5IapA6fETzB1Am8-10">
          <mxGeometry relative="1" as="geometry" />
        </mxCell>
        <mxCell id="jzkqw5IapA6fETzB1Am8-22" value="extends" style="edgeLabel;html=1;align=center;verticalAlign=middle;resizable=0;points=[];" vertex="1" connectable="0" parent="jzkqw5IapA6fETzB1Am8-19">
          <mxGeometry x="-0.4947" y="2" relative="1" as="geometry">
            <mxPoint x="8" y="-17" as="offset" />
          </mxGeometry>
        </mxCell>
        <mxCell id="jzkqw5IapA6fETzB1Am8-20" style="edgeStyle=orthogonalEdgeStyle;rounded=0;orthogonalLoop=1;jettySize=auto;html=1;exitX=0.5;exitY=1;exitDx=0;exitDy=0;entryX=0.5;entryY=0;entryDx=0;entryDy=0;dashed=1;dashPattern=8 8;" edge="1" parent="1" source="jzkqw5IapA6fETzB1Am8-2" target="jzkqw5IapA6fETzB1Am8-11">
          <mxGeometry relative="1" as="geometry" />
        </mxCell>
        <mxCell id="jzkqw5IapA6fETzB1Am8-23" value="extends" style="edgeLabel;html=1;align=center;verticalAlign=middle;resizable=0;points=[];" vertex="1" connectable="0" parent="jzkqw5IapA6fETzB1Am8-20">
          <mxGeometry x="-0.4857" y="-1" relative="1" as="geometry">
            <mxPoint x="-24" y="12" as="offset" />
          </mxGeometry>
        </mxCell>
        <mxCell id="jzkqw5IapA6fETzB1Am8-21" style="edgeStyle=orthogonalEdgeStyle;rounded=0;orthogonalLoop=1;jettySize=auto;html=1;exitX=1;exitY=0.5;exitDx=0;exitDy=0;entryX=0.5;entryY=0;entryDx=0;entryDy=0;dashed=1;dashPattern=8 8;" edge="1" parent="1" source="jzkqw5IapA6fETzB1Am8-2" target="jzkqw5IapA6fETzB1Am8-12">
          <mxGeometry relative="1" as="geometry" />
        </mxCell>
        <mxCell id="jzkqw5IapA6fETzB1Am8-24" value="extends" style="edgeLabel;html=1;align=center;verticalAlign=middle;resizable=0;points=[];" vertex="1" connectable="0" parent="jzkqw5IapA6fETzB1Am8-21">
          <mxGeometry x="-0.5474" y="-1" relative="1" as="geometry">
            <mxPoint y="-16" as="offset" />
          </mxGeometry>
        </mxCell>
        <mxCell id="jzkqw5IapA6fETzB1Am8-2" value="&lt;p style=&quot;margin:0px;margin-top:4px;text-align:center;&quot;&gt;class &lt;b&gt;PackAnimal&lt;/b&gt;&lt;/p&gt;&lt;hr size=&quot;1&quot;&gt;&lt;p style=&quot;margin:0px;margin-left:4px;&quot;&gt;PackAnimal(String name, String type)&lt;/p&gt;" style="verticalAlign=top;align=left;overflow=fill;fontSize=12;fontFamily=Helvetica;html=1;rounded=0;shadow=0;comic=0;labelBackgroundColor=none;strokeWidth=1" vertex="1" parent="1">
          <mxGeometry x="770" y="200" width="210" height="70" as="geometry" />
        </mxCell>
        <mxCell id="jzkqw5IapA6fETzB1Am8-7" value="&lt;p style=&quot;margin:0px;margin-top:4px;text-align:center;&quot;&gt;class &lt;b&gt;Dog&lt;/b&gt;&lt;/p&gt;&lt;hr size=&quot;1&quot;&gt;&lt;p style=&quot;margin:0px;margin-left:4px;&quot;&gt;Dog(String name)&lt;/p&gt;" style="verticalAlign=top;align=left;overflow=fill;fontSize=12;fontFamily=Helvetica;html=1;rounded=0;shadow=0;comic=0;labelBackgroundColor=none;strokeWidth=1" vertex="1" parent="1">
          <mxGeometry x="40" y="340" width="130" height="70" as="geometry" />
        </mxCell>
        <mxCell id="jzkqw5IapA6fETzB1Am8-8" value="&lt;p style=&quot;margin:0px;margin-top:4px;text-align:center;&quot;&gt;class &lt;b&gt;Cat&lt;/b&gt;&lt;/p&gt;&lt;hr size=&quot;1&quot;&gt;&lt;p style=&quot;margin:0px;margin-left:4px;&quot;&gt;Cat(String name)&lt;/p&gt;" style="verticalAlign=top;align=left;overflow=fill;fontSize=12;fontFamily=Helvetica;html=1;rounded=0;shadow=0;comic=0;labelBackgroundColor=none;strokeWidth=1" vertex="1" parent="1">
          <mxGeometry x="230" y="340" width="130" height="70" as="geometry" />
        </mxCell>
        <mxCell id="jzkqw5IapA6fETzB1Am8-9" value="&lt;p style=&quot;margin:0px;margin-top:4px;text-align:center;&quot;&gt;class &lt;b&gt;Hamster&lt;/b&gt;&lt;/p&gt;&lt;hr size=&quot;1&quot;&gt;&lt;p style=&quot;margin:0px;margin-left:4px;&quot;&gt;Hamster(String name)&lt;/p&gt;" style="verticalAlign=top;align=left;overflow=fill;fontSize=12;fontFamily=Helvetica;html=1;rounded=0;shadow=0;comic=0;labelBackgroundColor=none;strokeWidth=1" vertex="1" parent="1">
          <mxGeometry x="420" y="340" width="130" height="70" as="geometry" />
        </mxCell>
        <mxCell id="jzkqw5IapA6fETzB1Am8-10" value="&lt;p style=&quot;margin:0px;margin-top:4px;text-align:center;&quot;&gt;class &lt;b&gt;Horse&lt;/b&gt;&lt;/p&gt;&lt;hr size=&quot;1&quot;&gt;&lt;p style=&quot;margin:0px;margin-left:4px;&quot;&gt;Horse(String name)&lt;/p&gt;" style="verticalAlign=top;align=left;overflow=fill;fontSize=12;fontFamily=Helvetica;html=1;rounded=0;shadow=0;comic=0;labelBackgroundColor=none;strokeWidth=1" vertex="1" parent="1">
          <mxGeometry x="620" y="340" width="130" height="70" as="geometry" />
        </mxCell>
        <mxCell id="jzkqw5IapA6fETzB1Am8-11" value="&lt;p style=&quot;margin:0px;margin-top:4px;text-align:center;&quot;&gt;class &lt;b&gt;Camel&lt;/b&gt;&lt;/p&gt;&lt;hr size=&quot;1&quot;&gt;&lt;p style=&quot;margin:0px;margin-left:4px;&quot;&gt;Camel(String name)&lt;/p&gt;" style="verticalAlign=top;align=left;overflow=fill;fontSize=12;fontFamily=Helvetica;html=1;rounded=0;shadow=0;comic=0;labelBackgroundColor=none;strokeWidth=1" vertex="1" parent="1">
          <mxGeometry x="810" y="340" width="130" height="70" as="geometry" />
        </mxCell>
        <mxCell id="jzkqw5IapA6fETzB1Am8-12" value="&lt;p style=&quot;margin:0px;margin-top:4px;text-align:center;&quot;&gt;class &lt;b&gt;Donkey&lt;/b&gt;&lt;/p&gt;&lt;hr size=&quot;1&quot;&gt;&lt;p style=&quot;margin:0px;margin-left:4px;&quot;&gt;Donkey(String name)&lt;/p&gt;" style="verticalAlign=top;align=left;overflow=fill;fontSize=12;fontFamily=Helvetica;html=1;rounded=0;shadow=0;comic=0;labelBackgroundColor=none;strokeWidth=1" vertex="1" parent="1">
          <mxGeometry x="1000" y="340" width="130" height="70" as="geometry" />
        </mxCell>
      </root>
    </mxGraphModel>
  </diagram>
</mxfile>
